<svg width="146" height="147" viewBox="0 0 146 147" fill="none" xmlns="http://www.w3.org/2000/svg">
<path opacity="0.3" d="M75.8393 147C114.588 147 146 118.035 146 82.3048C146 46.5746 114.588 17.6096 75.8393 17.6096C37.0906 17.6096 5.67853 46.5746 5.67853 82.3048C5.67853 118.035 37.0906 147 75.8393 147Z" fill="#D84B20"/>
<path d="M47.0263 0L0.311401 52.2648L69.4493 127.504L115.541 77.5363L47.0263 0Z" fill="#D84B20"/>
<path opacity="0.1" d="M47.0263 0L0.311401 52.2648L69.4493 127.504L115.541 77.5363L47.0263 0Z" fill="black"/>
<path d="M2.17999 52.8394C3.2133 51.1244 4.49465 49.5468 5.98883 48.15L48.8948 8.04067C48.8948 8.04067 63.8435 5.74331 66.9578 12.6354L12.1458 53.9881L2.17999 52.8394Z" fill="#F2F2F2"/>
<path d="M0 51.9777L63.5321 141.575C63.5321 141.575 69.7607 145.596 75.9894 143.298L141.079 102.807L71.9408 6.3175L9.6544 51.1162L0 51.9777Z" fill="#D84B20"/>
<path d="M64.1735 20.3001L24.3069 46.7158L24.896 47.4717L64.7626 21.056L64.1735 20.3001Z" fill="#3F3D56"/>
<path d="M23.7784 56.6031L22.9365 57.1166L75.2571 130.058L76.0991 129.545L23.7784 56.6031Z" fill="#3F3D56"/>
<path d="M123.957 103.001L81.6122 131.729L82.2106 132.479L124.556 103.751L123.957 103.001Z" fill="#3F3D56"/>
<path d="M71.7323 21.5592L70.904 22.0908L125.093 93.8834L125.921 93.3519L71.7323 21.5592Z" fill="#3F3D56"/>
<path d="M54.9939 7.47124L5.70679 49.1818L6.1277 49.6047L55.4148 7.89414L54.9939 7.47124Z" fill="#3F3D56"/>
<path d="M59.0996 7.82891L7.5882 49.7612L8.0006 50.192L59.512 8.25967L59.0996 7.82891Z" fill="#3F3D56"/>
<path d="M62.3218 8.66455L8.84827 49.7649L9.24728 50.2063L62.7208 9.10595L62.3218 8.66455Z" fill="#3F3D56"/>
</svg>
