<svg width="825" height="572" viewBox="0 0 825 572" fill="none" xmlns="http://www.w3.org/2000/svg">
<g clip-path="url(#clip0)">
<path d="M728.857 495.537C728.857 495.537 833.792 447.227 796.929 413.727C760.065 380.226 728.857 495.537 728.857 495.537Z" fill="#E6E6E6"/>
<path d="M730.684 506.809C730.684 506.809 778.916 348.327 707.892 355.906C636.869 363.485 730.684 506.809 730.684 506.809Z" fill="#E6E6E6"/>
<path d="M765.85 492.754L763.826 519.265L763.794 519.723C763.796 523.862 763.587 528 763.167 532.118C760.42 559.159 748.611 571.483 734.81 571.483C721.009 571.483 709.715 559.159 706.967 532.118C706.548 528 706.339 523.862 706.341 519.723L706.325 519.353L706.317 519.265L704.284 492.754H765.85Z" fill="#E6E6E6"/>
<path d="M706.316 519.265L706.324 519.353L706.341 519.723C706.339 523.862 706.548 528 706.967 532.118H763.167C763.587 528 763.796 523.862 763.794 519.723L763.826 519.265H706.316Z" fill="white"/>
<path d="M44.445 511.75C44.445 511.75 125.687 474.348 97.147 448.411C68.6066 422.474 44.445 511.75 44.445 511.75Z" fill="#E6E6E6"/>
<path d="M45.8592 520.477C45.8592 520.477 83.2011 397.777 28.2137 403.645C-26.7738 409.513 45.8592 520.477 45.8592 520.477Z" fill="#E6E6E6"/>
<path d="M73.0853 509.595L71.518 530.12L71.4931 530.475C71.4946 533.68 71.3327 536.883 71.008 540.072C68.881 561.007 59.7384 570.548 49.0535 570.548C38.3686 570.548 29.6241 561.007 27.497 540.072C27.1723 536.883 27.0105 533.68 27.0119 530.475L26.9995 530.189L26.9933 530.12L25.4197 509.595H73.0853Z" fill="#E6E6E6"/>
<path d="M26.9935 530.12L26.9997 530.189L27.0122 530.475C27.0107 533.68 27.1726 536.883 27.4973 540.072H71.0082C71.3329 536.883 71.4947 533.68 71.4933 530.475L71.5181 530.12H26.9935Z" fill="white"/>
<path d="M551.496 170.612V134.556H557.102V170.612C558.71 171.262 560.042 172.452 560.869 173.977C561.697 175.502 561.968 177.267 561.636 178.97C561.305 180.672 560.392 182.207 559.053 183.31C557.714 184.414 556.034 185.017 554.299 185.017C552.564 185.017 550.884 184.414 549.545 183.31C548.206 182.207 547.293 180.672 546.962 178.97C546.63 177.267 546.902 175.502 547.729 173.977C548.556 172.452 549.888 171.262 551.496 170.612Z" fill="#E6E6E6"/>
<path d="M538.415 534.485H576.724V69.1467H591.674V534.485H629.983C634.523 534.485 639.018 535.379 643.213 537.117C647.407 538.854 651.218 541.401 654.429 544.611C657.639 547.822 660.185 551.633 661.923 555.828C663.66 560.022 664.554 564.518 664.554 569.058V569.059H503.843V569.058C503.843 564.518 504.737 560.022 506.475 555.828C508.212 551.633 510.759 547.822 513.969 544.611C517.179 541.401 520.99 538.854 525.185 537.117C529.379 535.379 533.875 534.485 538.415 534.485Z" fill="#E6E6E6"/>
<path d="M664.477 138.293H503.921L513.739 15.567C514.098 11.3352 516.027 7.39081 519.148 4.50993C522.268 1.62905 526.354 0.0202098 530.6 -6.10352e-05H637.797C642.044 0.0202088 646.129 1.62904 649.25 4.50991C652.37 7.39078 654.3 11.3351 654.658 15.567L664.477 138.293Z" fill="#D84B20"/>
<path d="M440.924 353.694C442.434 353.443 443.979 353.495 445.47 353.846C446.96 354.197 448.366 354.84 449.605 355.739C450.845 356.638 451.893 357.774 452.69 359.081C453.487 360.389 454.016 361.842 454.246 363.355L458.767 393.022L443.387 397.101L432.118 369.46C431.463 367.854 431.178 366.121 431.284 364.39C431.39 362.659 431.884 360.974 432.73 359.46C433.576 357.945 434.751 356.641 436.17 355.643C437.588 354.645 439.213 353.979 440.924 353.694Z" fill="#A0616A"/>
<path d="M441.212 392.966C432.676 426.887 436.35 457.914 468.133 482.274C506.255 471.765 531.609 446.41 547.078 409.56C548.04 407.269 548.528 404.806 548.512 402.321C548.496 399.837 547.976 397.381 546.985 395.102C545.994 392.824 544.551 390.77 542.744 389.064C540.937 387.359 538.803 386.037 536.471 385.179C532.967 383.89 529.154 383.699 525.539 384.631C521.924 385.563 518.678 387.573 516.234 390.395L478.83 433.568L461.283 390.035L441.212 392.966Z" fill="#D84B20"/>
<path d="M245.891 570.934C280.699 569.085 302.322 557.132 307.559 532.623L301.953 522.344L237.767 551.586C236.146 552.324 234.782 553.528 233.847 555.043C232.912 556.559 232.449 558.318 232.517 560.098C232.585 561.877 233.18 563.596 234.227 565.037C235.274 566.477 236.726 567.573 238.398 568.186L245.891 570.934Z" fill="#E6E6E6"/>
<path d="M272.787 571.179C290.873 570.631 308.265 570.802 324.746 571.917C327.637 572.115 330.489 571.164 332.684 569.272C334.878 567.38 336.239 564.699 336.469 561.811L337.459 549.442L351.474 527.016L339.328 514.869C318.915 535.201 296.527 552.279 269.939 562.43C269.084 563.016 268.442 563.862 268.109 564.843C267.776 565.823 267.769 566.886 268.089 567.87C268.41 568.855 269.041 569.71 269.888 570.306C270.735 570.903 271.752 571.209 272.787 571.179Z" fill="#E6E6E6"/>
<path d="M371.096 483.099C394.19 524.424 416.904 552.283 446.78 567.196C483.537 579.328 510.401 563.255 531.34 530.287L470.606 490.107L461.73 498.984L381.283 437.763C379.318 435.902 376.698 434.892 373.992 434.952C371.287 435.012 368.714 436.138 366.834 438.084L298.216 522.344L306.625 536.36L371.096 483.099Z" fill="#2F2E41"/>
<path d="M350.54 531.688L382.308 483.099L374.833 469.083L332.787 513L350.54 531.688Z" fill="#2F2E41"/>
<path d="M533.676 376.576C516.131 376.576 501.907 362.352 501.907 344.805C501.907 327.259 516.131 313.035 533.676 313.035C551.221 313.035 565.444 327.259 565.444 344.805C565.444 362.352 551.221 376.576 533.676 376.576Z" fill="#A0616A"/>
<path d="M525.267 403.674L560.773 391.526C555.518 383.177 553.216 373.306 554.232 363.494H525.267C526.914 377.751 527.161 391.274 525.267 403.674Z" fill="#A0616A"/>
<path d="M449.583 488.705C454.906 490.891 455.295 497.977 460.328 500.386C484.658 512.027 510.4 521.473 528.069 538.229C569.362 510.187 607.635 423.093 557.969 384.985C541.016 394.906 525.873 402.006 526.201 384.985L449.583 488.705Z" fill="#D84B20"/>
<path opacity="0.2" d="M471.073 451.329L488.359 445.255L522.463 471.886L537.751 416.846C538.812 413.028 540.53 414.963 542.997 417.615C545.568 415.235 548.767 413.639 552.215 413.017C555.663 412.395 559.218 412.772 562.459 414.103C565.7 415.435 568.493 417.665 570.508 420.532C572.524 423.399 573.677 426.782 573.833 430.283C575.652 470.207 563.613 503.983 533.676 529.82C494.519 521.435 477.901 494.979 471.073 460.673L472.924 459.439C472.242 456.788 471.625 454.084 471.073 451.329Z" fill="black"/>
<path d="M529.401 303.013C518.922 305.407 506.995 308.799 506.326 311.952C495.547 314.669 487.41 321.176 485.749 331.096C485.61 331.953 485.661 332.83 485.898 333.666C486.135 334.501 486.552 335.275 487.12 335.932C487.689 336.589 488.394 337.113 489.187 337.468C489.979 337.822 490.84 337.999 491.709 337.985C497.571 337.91 506.371 337.348 512.182 334.921C529.063 345.798 531.897 374.09 524.525 393.348L536.126 392.284L548.128 357.148L551.193 390.903L577.666 387.403L574.257 344.359C573.209 334.214 569.756 324.465 564.186 315.922C563.607 315.064 562.975 314.244 562.291 313.467C558.264 308.917 553.079 305.542 547.288 303.702C541.498 301.861 535.316 301.623 529.401 303.013Z" fill="#2F2E41"/>
<path d="M469.674 409.674L440.6 443.857L396.987 392.384L426.455 356.628L469.674 409.674Z" fill="#3F3D56"/>
<path d="M404.453 393.563L439.028 365.272C437.064 360.557 427.634 362.129 427.634 362.129L400.569 389.569C399.626 390.525 398.818 391.604 398.166 392.777L404.453 393.563Z" fill="#F2F2F2"/>
<path d="M402.881 391.598L442.171 360.95L485.784 426.962L444.725 454.663C440.796 456.235 436.867 453.484 436.867 453.484L396.791 392.188L402.881 391.598Z" fill="#3F3D56"/>
<path d="M437.272 370.516L437.643 371.033L412.495 389.105L412.124 388.588L437.272 370.516Z" fill="#D84B20"/>
<path d="M411.79 395.352L444.795 445.254L444.263 445.605L411.259 395.703L411.79 395.352Z" fill="#D84B20"/>
<path d="M474.983 427.094L475.361 427.607L448.649 447.261L448.272 446.748L474.983 427.094Z" fill="#D84B20"/>
<path d="M442.04 371.378L476.223 420.493L475.7 420.857L441.518 371.741L442.04 371.378Z" fill="#D84B20"/>
<path d="M431.481 361.74L431.747 362.029L400.656 390.564L400.391 390.275L431.481 361.74Z" fill="#B3B3B3"/>
<path d="M434.071 361.984L434.331 362.279L401.838 390.966L401.577 390.671L434.071 361.984Z" fill="#B3B3B3"/>
<path d="M436.104 362.556L436.356 362.858L402.624 390.976L402.373 390.674L436.104 362.556Z" fill="#B3B3B3"/>
<path d="M453.98 419.709C455.237 418.834 456.655 418.218 458.152 417.897C459.649 417.575 461.195 417.554 462.7 417.835C464.205 418.115 465.639 418.692 466.919 419.532C468.2 420.372 469.3 421.457 470.158 422.726L486.957 447.591L474.811 457.87L452.782 437.728C451.502 436.558 450.501 435.114 449.855 433.505C449.209 431.895 448.933 430.161 449.048 428.43C449.163 426.699 449.666 425.017 450.52 423.507C451.374 421.997 452.557 420.699 453.98 419.709Z" fill="#A0616A"/>
<path d="M471.073 455.066C477.901 489.372 494.519 515.829 533.675 524.213C563.613 498.377 575.652 464.6 573.833 424.676C573.72 422.194 573.105 419.76 572.025 417.522C570.946 415.284 569.424 413.288 567.552 411.654C565.679 410.02 563.495 408.783 561.132 408.017C558.768 407.251 556.274 406.971 553.799 407.196C550.081 407.534 546.554 408.996 543.688 411.387C540.821 413.779 538.75 416.986 537.751 420.584L522.463 475.624L487.95 443.814L471.073 455.066Z" fill="#D84B20"/>
<path d="M0.369141 572H825V569.961H0.00012207L0.369141 572Z" fill="#3F3D56"/>
<path d="M393.988 85.5054C394.484 85.5059 394.959 85.7029 395.309 86.0533C395.659 86.4036 395.856 86.8787 395.857 87.3742V233.143C395.856 233.638 395.659 234.113 395.309 234.464C394.959 234.814 394.484 235.011 393.988 235.012H272.52C272.025 235.011 271.55 234.814 271.2 234.464C270.849 234.113 270.652 233.638 270.652 233.143V87.3742C270.652 86.8787 270.849 86.4037 271.2 86.0534C271.55 85.703 272.025 85.5059 272.52 85.5054H393.988Z" fill="#E6E6E6"/>
<path d="M381.374 220.528H285.134V99.9888H381.374V220.528Z" fill="white"/>
<path d="M191.76 123.816C192.056 123.817 192.34 123.934 192.549 124.144C192.758 124.353 192.876 124.636 192.876 124.932V197.454C192.876 197.75 192.758 198.033 192.549 198.242C192.34 198.452 192.056 198.569 191.76 198.57H104.739C104.443 198.569 104.159 198.452 103.95 198.242C103.741 198.033 103.623 197.75 103.623 197.454V124.932C103.623 124.636 103.741 124.353 103.95 124.144C104.159 123.934 104.443 123.817 104.739 123.816L191.76 123.816Z" fill="#E6E6E6"/>
<path d="M184.229 132.463V189.923H112.269V132.463H184.229Z" fill="white"/>
<path d="M316.261 95.7839H350.247C351.068 95.7872 351.876 95.5733 352.588 95.164C353.3 94.7547 353.891 94.1645 354.302 93.4532C354.713 92.7419 354.928 91.9346 354.927 91.1133C354.925 90.2919 354.706 89.4855 354.293 88.7758L337.3 59.3418C337.286 59.3176 337.272 59.2934 337.258 59.2692C336.886 58.6432 336.372 58.1138 335.757 57.7243C335.142 57.3348 334.444 57.0963 333.72 57.0281L333.695 57.0258C333.55 57.0126 333.402 57.0057 333.254 57.0057C332.433 57.0008 331.626 57.2147 330.915 57.6252C330.204 58.0358 329.615 58.6282 329.208 59.3418L312.215 88.7758C311.805 89.4861 311.59 90.2917 311.59 91.1118C311.59 91.9319 311.806 92.7375 312.216 93.4478C312.626 94.158 313.215 94.7477 313.926 95.1578C314.636 95.5679 315.441 95.7839 316.261 95.7839ZM351.185 91.1073C351.184 91.273 351.139 91.4355 351.056 91.5791C350.976 91.7222 350.858 91.8411 350.716 91.9233C350.573 92.0055 350.411 92.048 350.247 92.0463H316.261C316.097 92.048 315.935 92.0056 315.793 91.9234C315.65 91.8412 315.533 91.7223 315.452 91.5791C315.369 91.4357 315.325 91.2733 315.323 91.1077C315.325 90.9449 315.369 90.7852 315.452 90.6451L332.445 61.2106C332.527 61.0685 332.645 60.9506 332.787 60.8686C332.929 60.7865 333.09 60.7434 333.254 60.7434C333.418 60.7434 333.579 60.7865 333.722 60.8686C333.864 60.9506 333.982 61.0685 334.064 61.2106L351.057 90.6446C351.14 90.7847 351.184 90.9444 351.185 91.1073Z" fill="#E6E6E6"/>
<path d="M333.254 65.8827C331.706 65.8827 330.451 64.6276 330.451 63.0794C330.451 61.5312 331.706 60.2762 333.254 60.2762C334.802 60.2762 336.057 61.5312 336.057 63.0794C336.057 64.6276 334.802 65.8827 333.254 65.8827Z" fill="#E6E6E6"/>
<path d="M139.037 126.152H157.463C157.908 126.154 158.346 126.038 158.732 125.816C159.118 125.594 159.439 125.274 159.661 124.889C159.884 124.503 160.001 124.065 160 123.62C159.999 123.175 159.88 122.738 159.656 122.353L150.443 106.395L150.42 106.355C150.219 106.016 149.94 105.729 149.607 105.518C149.273 105.307 148.895 105.177 148.502 105.14L148.488 105.139C148.41 105.132 148.33 105.128 148.25 105.128C147.804 105.125 147.367 105.241 146.981 105.464C146.596 105.687 146.276 106.008 146.056 106.395L136.843 122.353C136.621 122.738 136.504 123.175 136.504 123.619C136.504 124.064 136.621 124.501 136.843 124.886C137.065 125.271 137.385 125.591 137.77 125.813C138.155 126.035 138.592 126.152 139.037 126.152ZM157.971 123.617C157.97 123.707 157.946 123.795 157.901 123.873C157.858 123.95 157.794 124.015 157.717 124.059C157.639 124.104 157.552 124.127 157.463 124.126H139.037C138.947 124.127 138.86 124.104 138.783 124.059C138.705 124.015 138.641 123.95 138.598 123.873C138.553 123.795 138.529 123.707 138.528 123.617C138.529 123.529 138.553 123.442 138.598 123.366L147.811 107.408C147.855 107.331 147.919 107.267 147.996 107.222C148.073 107.178 148.161 107.155 148.25 107.155C148.338 107.155 148.426 107.178 148.503 107.222C148.58 107.267 148.644 107.331 148.688 107.408L157.901 123.366C157.947 123.442 157.971 123.529 157.971 123.617Z" fill="#E6E6E6"/>
<path d="M148.25 109.941C147.41 109.941 146.73 109.26 146.73 108.421C146.73 107.582 147.41 106.901 148.25 106.901C149.089 106.901 149.769 107.582 149.769 108.421C149.769 109.26 149.089 109.941 148.25 109.941Z" fill="#E6E6E6"/>
<path d="M380.273 174.631C378.93 171.547 376.973 168.77 374.521 166.468C372.069 164.167 369.174 162.389 366.013 161.243C362.725 159.974 359.201 159.43 355.684 159.649C352.166 159.868 348.738 160.844 345.632 162.511C338.341 166.381 332.512 172.466 325.107 176.169C317.906 179.737 309.983 181.603 301.947 181.625C292.849 181.696 283.893 179.371 275.978 174.884C275.671 174.69 275.451 174.384 275.364 174.031C275.278 173.677 275.332 173.304 275.516 172.99C275.7 172.676 275.998 172.446 276.348 172.348C276.698 172.249 277.073 172.291 277.393 172.464C284.566 176.484 292.623 178.667 300.845 178.817C309.066 178.968 317.197 177.083 324.513 173.328C331.942 169.433 337.829 163.143 345.397 159.493C348.61 157.933 352.1 157.027 355.666 156.827C359.232 156.627 362.801 157.137 366.169 158.327C369.912 159.582 373.346 161.619 376.243 164.301C379.141 166.983 381.435 170.25 382.976 173.886C383.656 175.555 380.946 176.282 380.273 174.631V174.631Z" fill="#E6E6E6"/>
<path d="M382.488 200.834C366.932 197.361 350.796 197.417 335.265 200.998C321.468 204.198 307.225 209.954 293 205.661C286.644 203.743 280.82 199.906 277.555 194.002C276.681 192.422 279.101 191.007 279.975 192.588C286.123 203.704 300.524 205.58 311.899 203.756C319.5 202.537 326.825 200.093 334.306 198.344C350.389 194.574 367.118 194.501 383.233 198.131C384.993 198.524 384.248 201.227 382.488 200.834Z" fill="#E6E6E6"/>
<path d="M383.498 138.174C368.583 135.637 353.306 136.18 338.609 139.771C324.878 143.135 311.457 150.821 296.939 149.494C290.217 148.879 283.563 146.407 278.997 141.265C277.802 139.92 279.778 137.93 280.979 139.282C284.918 143.718 290.591 146.018 296.413 146.639C303.124 147.355 309.717 145.964 316.104 143.989C323.174 141.802 330.041 139.032 337.229 137.225C352.606 133.364 368.621 132.766 384.243 135.471C386.018 135.774 385.265 138.476 383.498 138.174Z" fill="#E6E6E6"/>
<path d="M171.698 131.516C165.254 138.116 160.808 146.405 158.877 155.425C157.391 162.601 157.558 170.02 159.366 177.121C161.174 184.222 164.575 190.819 169.311 196.41C170.473 197.777 168.499 199.77 167.329 198.392C160.877 190.79 156.757 181.486 155.464 171.599C154.522 163.967 155.314 156.221 157.782 148.938C160.249 141.654 164.329 135.022 169.716 129.534C170.981 128.244 172.963 130.227 171.698 131.516Z" fill="#E6E6E6"/>
<path d="M129.642 125.535C138.233 131.836 143.042 142.006 143.719 152.525C144.423 163.471 140.249 174.041 133.527 182.539C129.605 187.432 124.921 191.661 119.653 195.064C118.139 196.054 116.733 193.628 118.239 192.643C126.82 187.028 134.164 179.051 138.063 169.478C139.964 164.931 140.95 160.054 140.964 155.125C140.978 150.197 140.02 145.314 138.145 140.756C136.045 135.678 132.62 131.257 128.227 127.955C126.788 126.899 128.185 124.466 129.642 125.535Z" fill="#E6E6E6"/>
<path d="M326.714 153.718C319.489 153.718 313.632 147.861 313.632 140.636C313.632 133.411 319.489 127.554 326.714 127.554C333.938 127.554 339.795 133.411 339.795 140.636C339.795 147.861 333.938 153.718 326.714 153.718Z" fill="#E6E6E6"/>
</g>
<defs>
<clipPath id="clip0">
<rect width="825" height="572" fill="white" transform="matrix(-1 0 0 1 825 0)"/>
</clipPath>
</defs>
</svg>
