<svg width="201" height="75" viewBox="0 0 201 75" fill="none" xmlns="http://www.w3.org/2000/svg">
<rect x="18.5254" y="15.701" width="45.6435" height="61.5505" rx="3" transform="rotate(-17.6622 18.5254 15.701)" fill="#D84B20"/>
<mask id="path-2-inside-1" fill="white">
<rect y="27.0139" width="41.2387" height="61.5505" rx="3" transform="rotate(-39.2422 0 27.0139)"/>
</mask>
<rect y="27.0139" width="41.2387" height="61.5505" rx="3" transform="rotate(-39.2422 0 27.0139)" fill="white" stroke="#D84B20" stroke-width="10" mask="url(#path-2-inside-1)"/>
<path d="M39.8145 34.2589C41.1146 33.605 42.4517 33.4448 43.826 33.7783C45.1856 34.0936 46.3107 34.8064 47.2012 35.9167C48.486 37.5184 48.9437 39.2452 48.5743 41.0968C48.2086 42.9157 47.0246 44.628 45.0224 46.234L36.0944 53.3949L20.7214 34.2284L29.349 27.3084C31.2966 25.7462 33.1742 24.9731 34.9816 24.9891C36.8073 24.9904 38.3333 25.7555 39.5597 27.2845C40.4648 28.413 40.9163 29.5913 40.9143 30.8193C40.9304 32.0328 40.5638 33.1793 39.8145 34.2589ZM31.6094 38.2377L34.6673 35.785C35.4318 35.1718 35.8829 34.5408 36.0205 33.892C36.1618 33.2104 35.9696 32.5419 35.4441 31.8867C34.9185 31.2314 34.3077 30.8988 33.6117 30.8887C32.9338 30.8641 32.2127 31.1583 31.4482 31.7715L28.3903 34.2242L31.6094 38.2377ZM41.1813 43.1232C41.964 42.4954 42.4259 41.8407 42.5672 41.1591C42.712 40.4447 42.5144 39.7507 41.9742 39.0772C41.434 38.4038 40.7831 38.0584 40.0215 38.0412C39.2781 38.0093 38.515 38.3073 37.7323 38.935L34.3468 41.6505L37.7411 45.8824L41.1813 43.1232Z" fill="#D84B20"/>
<path d="M106.986 50H98.346V12.2H104.934C109.686 12.2 113.268 13.082 115.68 14.846C118.092 16.574 119.298 19.022 119.298 22.19C119.298 25.79 117.786 28.436 114.762 30.128C119.154 31.784 121.35 34.898 121.35 39.47C121.35 42.71 120.162 45.284 117.786 47.192C115.41 49.064 111.81 50 106.986 50ZM106.986 48.38C108.678 48.38 110.226 48.254 111.63 48.002C113.034 47.714 114.366 47.264 115.626 46.652C116.922 46.004 117.93 45.068 118.65 43.844C119.37 42.62 119.73 41.162 119.73 39.47C119.73 35.618 117.876 33.008 114.168 31.64L110.928 30.452L113.952 28.724C116.436 27.356 117.678 25.178 117.678 22.19C117.678 16.61 113.43 13.82 104.934 13.82H99.966V48.38H106.986ZM142.793 38.336L141.983 36.932L145.007 35.204C147.491 33.836 148.733 31.658 148.733 28.67C148.733 23.09 144.485 20.3 135.989 20.3H131.021V60.8H129.401V18.68H135.989C140.741 18.68 144.323 19.562 146.735 21.326C149.147 23.054 150.353 25.502 150.353 28.67C150.353 32.27 148.841 34.916 145.817 36.608L142.793 38.336ZM162.088 50H157.984V18.68H162.088C167.416 18.68 171.664 20.084 174.832 22.892C178 25.7 179.584 29.516 179.584 34.34C179.584 39.164 178 42.98 174.832 45.788C171.664 48.596 167.416 50 162.088 50ZM162.088 48.38C166.948 48.38 170.8 47.138 173.644 44.654C176.524 42.17 177.964 38.732 177.964 34.34C177.964 29.948 176.524 26.51 173.644 24.026C170.8 21.542 166.948 20.3 162.088 20.3H159.604V48.38H162.088ZM186.967 46.868H190.531V50H186.967V46.868Z" fill="#D84B20"/>
<path d="M98.346 50H95.346V53H98.346V50ZM98.346 12.2V9.2H95.346V12.2H98.346ZM115.68 14.846L113.909 17.2675L113.921 17.2762L113.933 17.2847L115.68 14.846ZM114.762 30.128L113.297 27.5099L107.668 30.6595L113.704 32.9351L114.762 30.128ZM117.786 47.192L119.643 49.5485L119.654 49.5399L119.664 49.5311L117.786 47.192ZM111.63 48.002L112.16 50.9548L112.197 50.9483L112.233 50.9408L111.63 48.002ZM115.626 46.652L116.937 49.3505L116.952 49.343L116.968 49.3353L115.626 46.652ZM118.65 43.844L116.064 42.3229L116.064 42.3229L118.65 43.844ZM114.168 31.64L115.206 28.8254L115.201 28.8234L114.168 31.64ZM110.928 30.452L109.44 27.8473L103.839 31.0478L109.895 33.2686L110.928 30.452ZM113.952 28.724L112.505 26.0962L112.484 26.1076L112.464 26.1193L113.952 28.724ZM99.966 13.82V10.82H96.966V13.82H99.966ZM99.966 48.38H96.966V51.38H99.966V48.38ZM106.986 47H98.346V53H106.986V47ZM101.346 50V12.2H95.346V50H101.346ZM98.346 15.2H104.934V9.2H98.346V15.2ZM104.934 15.2C109.397 15.2 112.234 16.0428 113.909 17.2675L117.451 12.4245C114.302 10.1212 109.975 9.2 104.934 9.2V15.2ZM113.933 17.2847C115.498 18.406 116.298 19.9125 116.298 22.19H122.298C122.298 18.1315 120.686 14.742 117.427 12.4073L113.933 17.2847ZM116.298 22.19C116.298 23.563 116.013 24.5924 115.559 25.3861C115.109 26.1739 114.4 26.8928 113.297 27.5099L116.227 32.746C118.148 31.6712 119.707 30.2211 120.769 28.3629C121.827 26.5106 122.298 24.417 122.298 22.19H116.298ZM113.704 32.9351C115.469 33.6008 116.572 34.4715 117.251 35.4344C117.926 36.3912 118.35 37.6767 118.35 39.47H124.35C124.35 36.6913 123.676 34.1338 122.155 31.9766C120.638 29.8254 118.447 28.3112 115.82 27.3209L113.704 32.9351ZM118.35 39.47C118.35 41.8668 117.524 43.5545 115.908 44.8529L119.664 49.5311C122.8 47.0135 124.35 43.5532 124.35 39.47H118.35ZM115.929 44.8355C114.316 46.1069 111.51 47 106.986 47V53C112.11 53 116.504 52.0211 119.643 49.5485L115.929 44.8355ZM106.986 51.38C108.824 51.38 110.552 51.2434 112.16 50.9548L111.1 45.0492C109.9 45.2646 108.532 45.38 106.986 45.38V51.38ZM112.233 50.9408C113.876 50.6037 115.447 50.0743 116.937 49.3505L114.315 43.9535C113.285 44.4537 112.192 44.8243 111.027 45.0632L112.233 50.9408ZM116.968 49.3353C118.771 48.4337 120.216 47.0992 121.236 45.3651L116.064 42.3229C115.644 43.0368 115.073 43.5743 114.284 43.9687L116.968 49.3353ZM121.236 45.3651C122.275 43.5987 122.73 41.594 122.73 39.47H116.73C116.73 40.73 116.465 41.6413 116.064 42.3229L121.236 45.3651ZM122.73 39.47C122.73 37.0506 122.141 34.7948 120.785 32.8862C119.434 30.9837 117.493 29.6691 115.206 28.8254L113.13 34.4546C114.551 34.9789 115.391 35.6533 115.894 36.3608C116.392 37.0622 116.73 38.0374 116.73 39.47H122.73ZM115.201 28.8234L111.961 27.6354L109.895 33.2686L113.135 34.4566L115.201 28.8234ZM112.416 33.0567L115.44 31.3287L112.464 26.1193L109.44 27.8473L112.416 33.0567ZM115.399 31.3518C117.06 30.437 118.423 29.1802 119.353 27.5506C120.277 25.9292 120.678 24.105 120.678 22.19H114.678C114.678 23.263 114.458 24.0218 114.14 24.5784C113.828 25.1268 113.328 25.643 112.505 26.0962L115.399 31.3518ZM120.678 22.19C120.678 18.5068 119.201 15.416 116.139 13.405C113.297 11.5384 109.415 10.82 104.934 10.82V16.82C108.949 16.82 111.439 17.4966 112.845 18.42C114.031 19.199 114.678 20.2932 114.678 22.19H120.678ZM104.934 10.82H99.966V16.82H104.934V10.82ZM96.966 13.82V48.38H102.966V13.82H96.966ZM99.966 51.38H106.986V45.38H99.966V51.38ZM142.793 38.336L140.195 39.8352L141.688 42.423L144.282 40.9407L142.793 38.336ZM141.983 36.932L140.495 34.3273L137.88 35.8219L139.385 38.4312L141.983 36.932ZM145.007 35.204L143.56 32.5762L143.54 32.5876L143.519 32.5993L145.007 35.204ZM131.021 20.3V17.3H128.021V20.3H131.021ZM131.021 60.8V63.8H134.021V60.8H131.021ZM129.401 60.8H126.401V63.8H129.401V60.8ZM129.401 18.68V15.68H126.401V18.68H129.401ZM146.735 21.326L144.965 23.7475L144.976 23.7562L144.988 23.7647L146.735 21.326ZM145.817 36.608L144.353 33.99L144.341 33.9966L144.329 34.0033L145.817 36.608ZM145.392 36.8368L144.582 35.4328L139.385 38.4312L140.195 39.8352L145.392 36.8368ZM143.472 39.5367L146.496 37.8087L143.519 32.5993L140.495 34.3273L143.472 39.5367ZM146.455 37.8318C148.116 36.917 149.479 35.6602 150.408 34.0306C151.333 32.4092 151.733 30.585 151.733 28.67H145.733C145.733 29.743 145.513 30.5018 145.196 31.0584C144.883 31.6068 144.383 32.123 143.56 32.5762L146.455 37.8318ZM151.733 28.67C151.733 24.9868 150.256 21.896 147.194 19.885C144.352 18.0184 140.47 17.3 135.989 17.3V23.3C140.005 23.3 142.495 23.9766 143.901 24.9C145.087 25.679 145.733 26.7732 145.733 28.67H151.733ZM135.989 17.3H131.021V23.3H135.989V17.3ZM128.021 20.3V60.8H134.021V20.3H128.021ZM131.021 57.8H129.401V63.8H131.021V57.8ZM132.401 60.8V18.68H126.401V60.8H132.401ZM129.401 21.68H135.989V15.68H129.401V21.68ZM135.989 21.68C140.453 21.68 143.29 22.5228 144.965 23.7475L148.506 18.9045C145.357 16.6012 141.03 15.68 135.989 15.68V21.68ZM144.988 23.7647C146.553 24.886 147.353 26.3925 147.353 28.67H153.353C153.353 24.6115 151.741 21.222 148.483 18.8873L144.988 23.7647ZM147.353 28.67C147.353 30.043 147.068 31.0724 146.615 31.8661C146.165 32.6539 145.456 33.3728 144.353 33.99L147.282 39.226C149.203 38.1512 150.762 36.7011 151.824 34.8429C152.883 32.9906 153.353 30.897 153.353 28.67H147.353ZM144.329 34.0033L141.305 35.7313L144.282 40.9407L147.306 39.2127L144.329 34.0033ZM157.984 50H154.984V53H157.984V50ZM157.984 18.68V15.68H154.984V18.68H157.984ZM174.832 22.892L172.842 25.137L172.842 25.137L174.832 22.892ZM174.832 45.788L172.842 43.543L172.842 43.543L174.832 45.788ZM173.644 44.654L171.684 42.3823L171.677 42.3884L171.67 42.3945L173.644 44.654ZM173.644 24.026L171.67 26.2855L171.677 26.2916L171.684 26.2977L173.644 24.026ZM159.604 20.3V17.3H156.604V20.3H159.604ZM159.604 48.38H156.604V51.38H159.604V48.38ZM162.088 47H157.984V53H162.088V47ZM160.984 50V18.68H154.984V50H160.984ZM157.984 21.68H162.088V15.68H157.984V21.68ZM162.088 21.68C166.879 21.68 170.353 22.9315 172.842 25.137L176.821 20.647C172.974 17.2365 167.953 15.68 162.088 15.68V21.68ZM172.842 25.137C175.274 27.2931 176.584 30.2416 176.584 34.34H182.584C182.584 28.7904 180.725 24.1069 176.821 20.647L172.842 25.137ZM176.584 34.34C176.584 38.4384 175.274 41.3869 172.842 43.543L176.821 48.033C180.725 44.5731 182.584 39.8896 182.584 34.34H176.584ZM172.842 43.543C170.353 45.7485 166.879 47 162.088 47V53C167.953 53 172.974 51.4435 176.821 48.033L172.842 43.543ZM162.088 51.38C167.46 51.38 172.085 49.9988 175.617 46.9135L171.67 42.3945C169.515 44.2772 166.435 45.38 162.088 45.38V51.38ZM175.603 46.9257C179.249 43.7807 180.964 39.4546 180.964 34.34H174.964C174.964 38.0094 173.798 40.5593 171.684 42.3823L175.603 46.9257ZM180.964 34.34C180.964 29.2254 179.249 24.8993 175.603 21.7543L171.684 26.2977C173.798 28.1207 174.964 30.6706 174.964 34.34H180.964ZM175.617 21.7665C172.085 18.6812 167.46 17.3 162.088 17.3V23.3C166.435 23.3 169.515 24.4028 171.67 26.2855L175.617 21.7665ZM162.088 17.3H159.604V23.3H162.088V17.3ZM156.604 20.3V48.38H162.604V20.3H156.604ZM159.604 51.38H162.088V45.38H159.604V51.38ZM186.967 46.868V43.868H183.967V46.868H186.967ZM190.531 46.868H193.531V43.868H190.531V46.868ZM190.531 50V53H193.531V50H190.531ZM186.967 50H183.967V53H186.967V50ZM186.967 49.868H190.531V43.868H186.967V49.868ZM187.531 46.868V50H193.531V46.868H187.531ZM190.531 47H186.967V53H190.531V47ZM189.967 50V46.868H183.967V50H189.967Z" fill="#D84B20"/>
</svg>
